<?xml version="1.0" encoding="ISO-8859-1" standalone="no"?><svg xmlns="http://www.w3.org/2000/svg" xmlns:xlink="http://www.w3.org/1999/xlink" version="1.1"  >
<ellipse cx="500" cy="500" rx="200px" ry="200px" style="fill:none; stroke-width:1; stroke:black; "  />
<ellipse cx="500.0" cy="286.0" rx="200px" ry="200px" style="fill:none; stroke-width:1; stroke:black; "  />
<ellipse cx="685.3294364098699" cy="607.0" rx="200px" ry="200px" style="fill:none; stroke-width:1; stroke:black; "  />
<ellipse cx="314.67056359013014" cy="607.0" rx="200px" ry="200px" style="fill:none; stroke-width:1; stroke:black; "  />
<ellipse cx="500" cy="500" rx="201px" ry="201px" style="fill:none; stroke-width:1; stroke:white; "  />
<ellipse cx="500" cy="500" rx="202px" ry="202px" style="fill:none; stroke-width:2; stroke:white; "  />
<ellipse cx="500" cy="500" rx="203px" ry="203px" style="fill:none; stroke-width:2; stroke:white; "  />
<ellipse cx="500" cy="500" rx="204px" ry="204px" style="fill:none; stroke-width:2; stroke:white; "  />
<ellipse cx="500" cy="500" rx="205px" ry="205px" style="fill:none; stroke-width:2; stroke:white; "  />
<ellipse cx="500" cy="500" rx="206px" ry="206px" style="fill:none; stroke-width:2; stroke:white; "  />
<ellipse cx="500" cy="500" rx="207px" ry="207px" style="fill:none; stroke-width:2; stroke:white; "  />
<ellipse cx="500" cy="500" rx="208px" ry="208px" style="fill:none; stroke-width:2; stroke:white; "  />
<ellipse cx="500" cy="500" rx="209px" ry="209px" style="fill:none; stroke-width:2; stroke:white; "  />
<ellipse cx="500" cy="500" rx="210px" ry="210px" style="fill:none; stroke-width:2; stroke:white; "  />
<ellipse cx="500" cy="500" rx="211px" ry="211px" style="fill:none; stroke-width:2; stroke:white; "  />
<ellipse cx="500" cy="500" rx="212px" ry="212px" style="fill:none; stroke-width:2; stroke:white; "  />
<ellipse cx="500" cy="500" rx="213px" ry="213px" style="fill:none; stroke-width:2; stroke:white; "  />
<ellipse cx="500" cy="500" rx="214px" ry="214px" style="fill:none; stroke-width:2; stroke:white; "  />
<ellipse cx="500" cy="500" rx="215px" ry="215px" style="fill:none; stroke-width:2; stroke:white; "  />
<ellipse cx="500" cy="500" rx="216px" ry="216px" style="fill:none; stroke-width:2; stroke:white; "  />
<ellipse cx="500" cy="500" rx="217px" ry="217px" style="fill:none; stroke-width:2; stroke:white; "  />
<ellipse cx="500" cy="500" rx="218px" ry="218px" style="fill:none; stroke-width:2; stroke:white; "  />
<ellipse cx="500" cy="500" rx="219px" ry="219px" style="fill:none; stroke-width:2; stroke:white; "  />
<ellipse cx="500" cy="500" rx="220px" ry="220px" style="fill:none; stroke-width:2; stroke:white; "  />
<ellipse cx="500" cy="500" rx="221px" ry="221px" style="fill:none; stroke-width:2; stroke:white; "  />
<ellipse cx="500" cy="500" rx="222px" ry="222px" style="fill:none; stroke-width:2; stroke:white; "  />
<ellipse cx="500" cy="500" rx="223px" ry="223px" style="fill:none; stroke-width:2; stroke:white; "  />
<ellipse cx="500" cy="500" rx="224px" ry="224px" style="fill:none; stroke-width:2; stroke:white; "  />
<ellipse cx="500" cy="500" rx="225px" ry="225px" style="fill:none; stroke-width:2; stroke:white; "  />
<ellipse cx="500" cy="500" rx="226px" ry="226px" style="fill:none; stroke-width:2; stroke:white; "  />
<ellipse cx="500" cy="500" rx="227px" ry="227px" style="fill:none; stroke-width:2; stroke:white; "  />
<ellipse cx="500" cy="500" rx="228px" ry="228px" style="fill:none; stroke-width:2; stroke:white; "  />
<ellipse cx="500" cy="500" rx="229px" ry="229px" style="fill:none; stroke-width:2; stroke:white; "  />
<ellipse cx="500" cy="500" rx="230px" ry="230px" style="fill:none; stroke-width:2; stroke:white; "  />
<ellipse cx="500" cy="500" rx="231px" ry="231px" style="fill:none; stroke-width:2; stroke:white; "  />
<ellipse cx="500" cy="500" rx="232px" ry="232px" style="fill:none; stroke-width:2; stroke:white; "  />
<ellipse cx="500" cy="500" rx="233px" ry="233px" style="fill:none; stroke-width:2; stroke:white; "  />
<ellipse cx="500" cy="500" rx="234px" ry="234px" style="fill:none; stroke-width:2; stroke:white; "  />
<ellipse cx="500" cy="500" rx="235px" ry="235px" style="fill:none; stroke-width:2; stroke:white; "  />
<ellipse cx="500" cy="500" rx="236px" ry="236px" style="fill:none; stroke-width:2; stroke:white; "  />
<ellipse cx="500" cy="500" rx="237px" ry="237px" style="fill:none; stroke-width:2; stroke:white; "  />
<ellipse cx="500" cy="500" rx="238px" ry="238px" style="fill:none; stroke-width:2; stroke:white; "  />
<ellipse cx="500" cy="500" rx="239px" ry="239px" style="fill:none; stroke-width:2; stroke:white; "  />
<ellipse cx="500" cy="500" rx="240px" ry="240px" style="fill:none; stroke-width:2; stroke:white; "  />
<ellipse cx="500" cy="500" rx="241px" ry="241px" style="fill:none; stroke-width:2; stroke:white; "  />
<ellipse cx="500" cy="500" rx="242px" ry="242px" style="fill:none; stroke-width:2; stroke:white; "  />
<ellipse cx="500" cy="500" rx="243px" ry="243px" style="fill:none; stroke-width:2; stroke:white; "  />
<ellipse cx="500" cy="500" rx="244px" ry="244px" style="fill:none; stroke-width:2; stroke:white; "  />
<ellipse cx="500" cy="500" rx="245px" ry="245px" style="fill:none; stroke-width:2; stroke:white; "  />
<ellipse cx="500" cy="500" rx="246px" ry="246px" style="fill:none; stroke-width:2; stroke:white; "  />
<ellipse cx="500" cy="500" rx="247px" ry="247px" style="fill:none; stroke-width:2; stroke:white; "  />
<ellipse cx="500" cy="500" rx="248px" ry="248px" style="fill:none; stroke-width:2; stroke:white; "  />
<ellipse cx="500" cy="500" rx="249px" ry="249px" style="fill:none; stroke-width:2; stroke:white; "  />
<ellipse cx="500" cy="500" rx="250px" ry="250px" style="fill:none; stroke-width:2; stroke:white; "  />
<ellipse cx="500" cy="500" rx="251px" ry="251px" style="fill:none; stroke-width:2; stroke:white; "  />
<ellipse cx="500" cy="500" rx="252px" ry="252px" style="fill:none; stroke-width:2; stroke:white; "  />
<ellipse cx="500" cy="500" rx="253px" ry="253px" style="fill:none; stroke-width:2; stroke:white; "  />
<ellipse cx="500" cy="500" rx="254px" ry="254px" style="fill:none; stroke-width:2; stroke:white; "  />
<ellipse cx="500" cy="500" rx="255px" ry="255px" style="fill:none; stroke-width:2; stroke:white; "  />
<ellipse cx="500" cy="500" rx="256px" ry="256px" style="fill:none; stroke-width:2; stroke:white; "  />
<ellipse cx="500" cy="500" rx="257px" ry="257px" style="fill:none; stroke-width:2; stroke:white; "  />
<ellipse cx="500" cy="500" rx="258px" ry="258px" style="fill:none; stroke-width:2; stroke:white; "  />
<ellipse cx="500" cy="500" rx="259px" ry="259px" style="fill:none; stroke-width:2; stroke:white; "  />
<ellipse cx="500" cy="500" rx="260px" ry="260px" style="fill:none; stroke-width:2; stroke:white; "  />
<ellipse cx="500" cy="500" rx="261px" ry="261px" style="fill:none; stroke-width:2; stroke:white; "  />
<ellipse cx="500" cy="500" rx="262px" ry="262px" style="fill:none; stroke-width:2; stroke:white; "  />
<ellipse cx="500" cy="500" rx="263px" ry="263px" style="fill:none; stroke-width:2; stroke:white; "  />
<ellipse cx="500" cy="500" rx="264px" ry="264px" style="fill:none; stroke-width:2; stroke:white; "  />
<ellipse cx="500" cy="500" rx="265px" ry="265px" style="fill:none; stroke-width:2; stroke:white; "  />
<ellipse cx="500" cy="500" rx="266px" ry="266px" style="fill:none; stroke-width:2; stroke:white; "  />
<ellipse cx="500" cy="500" rx="267px" ry="267px" style="fill:none; stroke-width:2; stroke:white; "  />
<ellipse cx="500" cy="500" rx="268px" ry="268px" style="fill:none; stroke-width:2; stroke:white; "  />
<ellipse cx="500" cy="500" rx="269px" ry="269px" style="fill:none; stroke-width:2; stroke:white; "  />
<ellipse cx="500" cy="500" rx="270px" ry="270px" style="fill:none; stroke-width:2; stroke:white; "  />
<ellipse cx="500" cy="500" rx="271px" ry="271px" style="fill:none; stroke-width:2; stroke:white; "  />
<ellipse cx="500" cy="500" rx="272px" ry="272px" style="fill:none; stroke-width:2; stroke:white; "  />
<ellipse cx="500" cy="500" rx="273px" ry="273px" style="fill:none; stroke-width:2; stroke:white; "  />
<ellipse cx="500" cy="500" rx="274px" ry="274px" style="fill:none; stroke-width:2; stroke:white; "  />
<ellipse cx="500" cy="500" rx="275px" ry="275px" style="fill:none; stroke-width:2; stroke:white; "  />
<ellipse cx="500" cy="500" rx="276px" ry="276px" style="fill:none; stroke-width:2; stroke:white; "  />
<ellipse cx="500" cy="500" rx="277px" ry="277px" style="fill:none; stroke-width:2; stroke:white; "  />
<ellipse cx="500" cy="500" rx="278px" ry="278px" style="fill:none; stroke-width:2; stroke:white; "  />
<ellipse cx="500" cy="500" rx="279px" ry="279px" style="fill:none; stroke-width:2; stroke:white; "  />
<ellipse cx="500" cy="500" rx="280px" ry="280px" style="fill:none; stroke-width:2; stroke:white; "  />
<ellipse cx="500" cy="500" rx="281px" ry="281px" style="fill:none; stroke-width:2; stroke:white; "  />
<ellipse cx="500" cy="500" rx="282px" ry="282px" style="fill:none; stroke-width:2; stroke:white; "  />
<ellipse cx="500" cy="500" rx="283px" ry="283px" style="fill:none; stroke-width:2; stroke:white; "  />
<ellipse cx="500" cy="500" rx="284px" ry="284px" style="fill:none; stroke-width:2; stroke:white; "  />
<ellipse cx="500" cy="500" rx="285px" ry="285px" style="fill:none; stroke-width:2; stroke:white; "  />
<ellipse cx="500" cy="500" rx="286px" ry="286px" style="fill:none; stroke-width:2; stroke:white; "  />
<ellipse cx="500" cy="500" rx="287px" ry="287px" style="fill:none; stroke-width:2; stroke:white; "  />
<ellipse cx="500" cy="500" rx="288px" ry="288px" style="fill:none; stroke-width:2; stroke:white; "  />
<ellipse cx="500" cy="500" rx="289px" ry="289px" style="fill:none; stroke-width:2; stroke:white; "  />
<ellipse cx="500" cy="500" rx="290px" ry="290px" style="fill:none; stroke-width:2; stroke:white; "  />
<ellipse cx="500" cy="500" rx="291px" ry="291px" style="fill:none; stroke-width:2; stroke:white; "  />
<ellipse cx="500" cy="500" rx="292px" ry="292px" style="fill:none; stroke-width:2; stroke:white; "  />
<ellipse cx="500" cy="500" rx="293px" ry="293px" style="fill:none; stroke-width:2; stroke:white; "  />
<ellipse cx="500" cy="500" rx="294px" ry="294px" style="fill:none; stroke-width:2; stroke:white; "  />
<ellipse cx="500" cy="500" rx="295px" ry="295px" style="fill:none; stroke-width:2; stroke:white; "  />
<ellipse cx="500" cy="500" rx="296px" ry="296px" style="fill:none; stroke-width:2; stroke:white; "  />
<ellipse cx="500" cy="500" rx="297px" ry="297px" style="fill:none; stroke-width:2; stroke:white; "  />
<ellipse cx="500" cy="500" rx="298px" ry="298px" style="fill:none; stroke-width:2; stroke:white; "  />
<ellipse cx="500" cy="500" rx="299px" ry="299px" style="fill:none; stroke-width:2; stroke:white; "  />
</svg>
